# xmcd
#
# Track frame offsets: 
#        150
#        16741
#        33631
#        52003
#        67370
#        91195
#        107049
#        124576
#        140457
#        156438
#        176601
#
# Disc length: 2611 seconds
#
# Revision: 0
# Processed by: cddbd v1.5PL3 Copyright (c) Steve Scherf et al.
# Submitted via: ExactAudioCopy v0.95a4
#
DISCID=980a310b
DTITLE=Jimmy Fortune - When One Door Closes
DYEAR=2003
DGENRE=Country
TTITLE0=What Money Can't Buy
TTITLE1=Elizabeth
TTITLE2=More Than A Name On A Wall
TTITLE3=Cryin' Ain't Gonna Get Me Over You
TTITLE4='til I Gain Control Again
TTITLE5=Thank God For Mama And Daddy
TTITLE6=Too Much On My Heart
TTITLE7=My Only Love
TTITLE8=When We Were Young
TTITLE9=If You Were Mine
TTITLE10=When One Door Closes
EXTD=
EXTT0=
EXTT1=
EXTT2=
EXTT3=
EXTT4=
EXTT5=
EXTT6=
EXTT7=
EXTT8=
EXTT9=
EXTT10=
PLAYORDER=
